/* XPM */
static const char *xpm_collapsed[] = {
/* columns rows colors chars-per-pixel */
"12 13 102 2 ",
"   c black",
".  c #000100",
"X  c #000102",
"o  c #020202",
"O  c #000400",
"+  c #000502",
"@  c #000205",
"#  c #000305",
"$  c #020305",
"%  c #000404",
"&  c #000504",
"*  c #000505",
"=  c #000606",
"-  c #000607",
";  c #080607",
":  c #000608",
">  c #03080B",
",  c #000A0B",
"<  c #000C0B",
"1  c #060C0A",
"2  c #000B0D",
"3  c #000C0C",
"4  c #000C0D",
"5  c #000E0C",
"6  c #000E0D",
"7  c #000D0E",
"8  c #020D0F",
"9  c #000E0F",
"0  c #080A09",
"q  c #01110E",
"w  c #02110E",
"e  c #000E11",
"r  c #000F12",
"t  c #040F11",
"y  c #070F11",
"u  c #001010",
"i  c #021212",
"p  c #061414",
"a  c #081414",
"s  c #091515",
"d  c #0A1517",
"f  c #051918",
"g  c #101010",
"h  c #152324",
"j  c #4C5554",
"k  c white",
"l  c #818181",
"z  c #878F91",
"x  c #969A99",
"c  c #99A2A1",
"v  c #9BA5A7",
"b  c #9AA8A9",
"n  c #A0A4A5",
"m  c #A4A4A6",
"M  c #A4A8A9",
"N  c #A3AEAA",
"B  c #A4ADAA",
"V  c #A5AEAB",
"C  c #A6ABAE",
"Z  c #A2ACAD",
"A  c #A9ABAA",
"S  c #ACAAAB",
"D  c #AEADAB",
"F  c #B0ACAB",
"G  c #ACB0AF",
"H  c #A9B2B1",
"J  c #ACB4B6",
"K  c #99BBBC",
"L  c #ACBEBE",
"P  c #B0B2B1",
"I  c #B3B7B8",
"U  c #B0B8BA",
"Y  c #B5B9BA",
"T  c #BCC1C4",
"R  c #BECDCA",
"E  c #EBF0F3",
"W  c #EEF6F8",
"Q  c #EBFDFF",
"!  c #F3F4F6",
"~  c #F1F7F7",
"^  c #F2F6F7",
"/  c #F5F7F6",
"(  c #F3F7F8",
")  c #F1FAF9",
"_  c #F5F9FA",
"`  c #F4FAFA",
"'  c #F7FBFA",
"]  c #F4F9FC",
"[  c #F3FFFF",
"{  c #F4FCFE",
"}  c #F5FFFF",
"|  c #F6FEFF",
" . c #F6FFFF",
".. c #FAF8F9",
"X. c #F8F9FB",
"o. c #FCFBF9",
"O. c #FDFCFA",
"+. c #F9FAFC",
"@. c #F8FFFF",
"#. c #FDFDFD",
"$. c #FFFFFD",
"%. c #FCFFFF",
/* pixels */
"k k k k k k k - 9 k k k ",
"k k k k k 2 7 [ i k k k ",
"k k k : @ U W K - k u f ",
"k p % ) C ` n ( > y v * ",
"5 R  .V ~ G   g +.M { a ",
"< } B ' 0   S ..m X.C 3 ",
"= c / o O.D #.P ! Y | h ",
"d ` $ ; F o.A ^ I ] # k ",
", H X . $.l _ T E J t k ",
"3 s j 1 x %.z @.Z : k k ",
"6 & w O @.N } b 8 k k k ",
"4 k k k + q L Q e k k k ",
"k k k k k k 4 r k k k k "
};
