/* XPM */
static const char* xpm_expanded[] = {
/* columns rows colors chars-per-pixel */
"12 21 150 2 ",
"   c #000002",
".  c #010002",
"X  c #000302",
"o  c #000204",
"O  c #000307",
"+  c #000404",
"@  c #000405",
"#  c #000505",
"$  c #000507",
"%  c #080405",
"&  c #000805",
"*  c #000308",
"=  c #000709",
"-  c #05060A",
";  c #0D070B",
":  c #000808",
">  c #000908",
",  c #000909",
"<  c #000A0A",
"1  c #000B0B",
"2  c #000C0B",
"3  c #070D0B",
"4  c #00090E",
"5  c #000A0E",
"6  c #000C0C",
"7  c #000D0D",
"8  c #000C0F",
"9  c #030D0E",
"0  c #090D0E",
"q  c #130A0D",
"w  c #00100D",
"e  c #00100F",
"r  c #00110F",
"t  c #00120F",
"y  c #000E11",
"u  c #001010",
"i  c #021011",
"p  c #001312",
"a  c #021414",
"s  c #021615",
"d  c #071516",
"f  c #081211",
"g  c #081213",
"h  c #0A1413",
"j  c #091515",
"k  c #081817",
"l  c #061C19",
"z  c #091919",
"x  c #0A1818",
"c  c #0A1819",
"v  c #0B1F1D",
"b  c #0D201E",
"n  c #102222",
"m  c white",
"M  c #868A8B",
"N  c #8C8D8F",
"B  c #918D8E",
"V  c #8E989A",
"C  c #8E9A9A",
"Z  c #909495",
"A  c #929C9B",
"S  c #96999E",
"D  c #959E9D",
"F  c #98999D",
"G  c #A19FA2",
"H  c #97A2A4",
"J  c #97A7A6",
"K  c #9EA4A2",
"L  c #9DA2A6",
"P  c #9CA4A6",
"I  c #9FA4A7",
"U  c #9DA7A6",
"Y  c #9FA7AA",
"T  c #99ACAA",
"R  c #9EACAD",
"E  c #A2A3A7",
"W  c #A1A5A6",
"Q  c #A3A7A6",
"!  c #A5A5A7",
"~  c #A0A9A6",
"^  c #A0A3A8",
"/  c #A3A7AA",
"(  c #A4A7AC",
")  c #A5A9AA",
"_  c #A7ADAB",
"`  c #A3A8AC",
"'  c #A2AAAC",
"]  c #A3ABAD",
"[  c #A4A9AD",
"{  c #AEAAAB",
"}  c #AAABAD",
"|  c #ABABAD",
" . c #A8ACAD",
".. c #B1A8AB",
"X. c #B2AEAF",
"o. c #A4B0AE",
"O. c #AAABB0",
"+. c #AEAFB1",
"@. c #B4AFB3",
"#. c #A8B1B0",
"$. c #A8B2B1",
"%. c #AAB3B2",
"&. c #ACB2B2",
"*. c #AAB2B5",
"=. c #ABB3B6",
"-. c #AFB4B7",
";. c #ACB6B7",
":. c #AFB8B7",
">. c #B0B0B2",
",. c #B6B0B4",
"<. c #B5B3B4",
"1. c #B0B4B7",
"2. c #B4B3B8",
"3. c #B0BABB",
"4. c #B4BABA",
"5. c #B7BBBC",
"6. c #BABBBD",
"7. c #B9BDBE",
"8. c #B5BFC1",
"9. c #BDC3C1",
"0. c #B9C9C9",
"q. c #CFDBDB",
"w. c #F1EFF2",
"e. c #E5F3F4",
"r. c #E8F2F4",
"t. c #EDF6F5",
"y. c #EFF7FA",
"u. c #E9F9F8",
"i. c #EBF9F9",
"p. c #ECF8F8",
"a. c #F6F7FB",
"s. c #F9F7FA",
"d. c #F0F8FA",
"f. c #F3FEFF",
"g. c #F3FFFF",
"h. c #F5FEFD",
"j. c #F4FFFF",
"k. c #F6FFFE",
"l. c #F7FFFF",
"z. c #FEF8FA",
"x. c #F8F9FE",
"c. c #F9FDFE",
"v. c #F8FEFE",
"b. c #F9FFFF",
"n. c #FAFEFF",
"m. c white",
"M. c #FCFDFF",
"N. c #FCFFFF",
"B. c #FFFEFF",
"V. c #FEFFFF",
/* pixels */
"m m m m m m m v w m m m ",
"m m m m m z i T a m m m ",
"m m m 5 5 r.q.i.: m m m ",
"m y = Y b.L d.o.8 m m m ",
"8 f.8.b.S b.4.t.: m m m ",
"z H y.[ x.F b.~ h m m m ",
"# l.=.N.O.a.) 3 X m m m ",
"a R b.^ N.- 0 K #.f m m ",
"n e.=.O * 1.Q _ #.A 8 m ",
": d # ` ( /  .9.D #.z m ",
"i 0.V ;.E 2.+.Q &.U # w ",
"m i 3.5.G <.B <.X : l.& ",
"m m f Z @...q % } l.J l ",
"m m : 7.X ; z.{ N.:.i.w ",
"m m m O } s.X.N.N l.2 m ",
"m m m 8 N.! w.>.N.;.: m ",
"m m m # ` N.6.N.U # m m ",
"m m m b f.U b.M b.j m m ",
"m m m m : p.` b.8 m m m ",
"m m m m m k : V d m m m ",
"m m m m m m m w m m m m "
};
